<svg preserveAspectRatio="none" width="100%" height="100%" overflow="visible" style="display: block;" viewBox="0 0 388.333 85.9007" fill="none" xmlns="http://www.w3.org/2000/svg">

<g id="ONLINE">
<path d="M76.0692 12.4134C72.1759 8.54042 67.484 5.5612 62.0933 3.37644C56.7025 1.19169 50.7128 0.0993072 44.224 0.0993072C37.835 0.0993072 31.8453 1.19169 26.3547 3.37644C20.964 5.5612 16.272 8.63972 12.3787 12.4134C8.48541 16.2864 5.49055 20.8545 3.29433 26.0185C1.0981 31.1824 0 36.9423 0 43C0 49.0577 1.0981 54.7182 3.29433 59.9815C5.49055 65.1455 8.58524 69.8129 12.3787 73.5866C16.272 77.4596 20.964 80.4388 26.3547 82.6236C31.7454 84.8083 37.7351 85.9007 44.224 85.9007C50.613 85.9007 56.6027 84.8083 62.0933 82.6236C67.484 80.4388 72.1759 77.3603 76.0692 73.5866C79.9625 69.7136 82.9574 65.1455 85.1536 59.9815C87.3498 54.8176 88.448 49.0577 88.448 43C88.448 36.9423 87.3498 31.2818 85.1536 26.0185C82.9574 20.8545 79.9625 16.2864 76.0692 12.4134ZM75.1708 43C75.1708 47.2702 74.472 51.4411 72.9746 55.2148C71.4772 58.9885 69.3807 62.3649 66.7852 65.1455C64.0898 67.9261 60.7955 70.2102 57.1018 71.8984C53.3084 73.5866 49.1156 74.3811 44.4236 74.3811C39.7317 74.3811 35.4391 73.5866 31.7454 71.8984C27.9519 70.2102 24.7575 67.9261 22.0621 65.1455C19.3667 62.3649 17.2703 58.9885 15.8727 55.2148C14.3753 51.4411 13.6765 47.2702 13.6765 43C13.6765 38.7298 14.3753 34.5589 15.8727 30.7852C17.3701 27.0115 19.4665 23.6351 22.0621 20.8545C24.7575 18.0739 28.0518 15.7898 31.7454 14.1016C35.5389 12.4134 39.7317 11.6189 44.4236 11.6189C49.1156 11.6189 53.4082 12.4134 57.1018 14.1016C60.8953 15.7898 64.0898 18.0739 66.7852 20.8545C69.4806 23.6351 71.577 27.0115 72.9746 30.7852C74.3722 34.5589 75.1708 38.7298 75.1708 43Z" fill="#2D2E2C"/>
<path d="M186.18 0H173.402V85.5035H225.013V74.0831H186.18V0Z" fill="#2D2E2C"/>
<path d="M245.378 0H232.6V85.6028H245.378V0Z" fill="#2D2E2C"/>
<path d="M343.11 74.0831V48.164H383.241V36.6443H343.11V11.5196H386.136V0H330.332V85.5035H388.333V74.0831H343.11Z" fill="#2D2E2C"/>
<path d="M153.736 56.8037L96.1348 0V85.5035H108.114V29.3949L165.815 85.5035V0H153.736V56.8037Z" fill="#2D2E2C"/>
<path d="M310.666 57.2009L252.965 0V85.5035H265.044V29.7921L322.645 85.1062V0H310.666V57.2009Z" fill="#2D2E2C"/>
</g>

<g id="BET">
<path fill-rule="evenodd" clip-rule="evenodd" d="M113.405 60.8753V61.3718C113.405 61.5704 113.405 61.7691 113.505 61.8684V62.2656C113.405 66.6351 112.307 70.3095 110.211 73.2887C108.014 76.2679 105.219 78.7506 101.825 80.5381C98.4308 82.4249 94.5375 83.7159 90.2449 84.5104C85.9523 85.3048 81.6596 85.7021 77.367 85.7021H37.4357V36.4457H37.236C37.236 36.4457 7.08782 34.4596 0 34.4596C0 34.4596 20.1653 32.7714 37.236 32.4734H37.4357L37.3358 0H73.3739C77.5667 0 81.7595 0.297921 85.9523 0.794457C90.1451 1.3903 94.0384 2.38337 97.4325 3.97229C100.827 5.5612 103.722 7.84527 105.818 10.7252C108.014 13.6051 109.112 17.3788 109.112 22.1455C109.112 27.0115 107.615 31.0831 104.52 34.261L103.722 35.0554C103.722 35.0554 103.422 35.4527 102.723 36.0485C101.925 36.6443 101.126 37.2402 99.9282 37.9353C99.8284 37.985 99.7535 38.0346 99.6787 38.0843C99.6038 38.1339 99.5289 38.1836 99.4291 38.2333C93.1399 35.4527 86.0521 33.8637 80.861 32.97C83.9557 31.679 85.2535 30.388 85.6528 29.8915C85.7989 29.7461 85.8916 29.6007 86.0091 29.4163C86.0521 29.3488 86.0984 29.2761 86.1519 29.1963C86.8507 28.0046 87.25 26.6143 87.25 25.0254C87.25 23.3372 86.8507 22.0462 86.0521 20.9538C85.1536 19.8614 84.1554 19.067 82.8576 18.4711C81.46 17.776 79.9626 17.3788 78.2655 17.0808C76.5684 16.7829 74.8713 16.6836 73.2741 16.6836H58.9986L59.0984 33.0693H59.7972C82.9574 34.4596 98.7303 38.6305 106.617 45.6813C107.415 46.2771 111.608 49.8522 113.006 56.6051L113.205 57.3002V57.5982C113.205 57.7471 113.23 57.8961 113.255 58.045C113.28 58.194 113.305 58.343 113.305 58.4919V58.8891C113.305 59.2367 113.33 59.5595 113.355 59.8822C113.38 60.205 113.405 60.5277 113.405 60.8753ZM90.5444 63.7552L90.6442 63.5566C91.343 62.2656 93.0401 57.9954 88.8473 52.7321C86.1519 49.6536 79.7629 45.2841 65.4874 41.5104L56.6027 39.4249L57.8007 40.8152L58.0003 41.0139C58.0262 41.0654 58.0723 41.1303 58.1316 41.2138C58.3007 41.4521 58.5772 41.8417 58.7989 42.5035L59.0984 43.3972C59.1068 43.4723 59.1152 43.5466 59.1235 43.6204C59.2143 44.4258 59.2981 45.1688 59.2981 46.0785C59.1983 48.7598 59.0984 61.6697 59.0984 67.3303V69.1178L59.897 69.2171H77.6665C79.2638 69.2171 80.9609 69.0185 82.6579 68.7205C84.355 68.4226 85.8524 67.8268 87.1502 67.0323C88.448 66.2379 89.5461 65.2448 90.4445 63.9538C90.4445 63.9538 90.5444 63.8545 90.5444 63.7552Z" fill="var(--fill-0, #EE3536)"/>
<path d="M120.693 85.7021V0.0992829H178.194V17.478H140.558V33.6651H176.197V50.2494H140.658V68.0254H180.39V85.7021H120.693Z" fill="var(--fill-0, #EE3536)"/>
<path d="M257.757 8.54039C261.251 5.16395 265.244 2.38335 269.736 0.0992829H185.781V17.776H209.939V85.7021H230.604V17.776H250.37C252.466 14.3995 254.962 11.321 257.757 8.54039Z" fill="var(--fill-0, #EE3536)"/>
</g>

</svg>