<svg width="66" height="40" viewBox="0 0 66 40" fill="none" xmlns="http://www.w3.org/2000/svg">
<path d="M0.853516 17.2949V1.08936H7.09766C8.71484 1.08936 10.0962 1.40381 11.2417 2.03271C12.3872 2.65413 13.2632 3.56006 13.8696 4.75049C14.4836 5.94092 14.7905 7.38965 14.7905 9.09668V9.11914C14.7905 10.8411 14.4873 12.3123 13.8809 13.5327C13.2744 14.7531 12.3984 15.6852 11.2529 16.3291C10.1074 16.973 8.72233 17.2949 7.09766 17.2949H0.853516ZM4.24512 14.4985H6.65967C7.66292 14.4985 8.5127 14.2964 9.20898 13.8921C9.90527 13.4803 10.4331 12.8776 10.7925 12.084C11.1519 11.2904 11.3315 10.3096 11.3315 9.1416V9.11914C11.3315 7.99609 11.1481 7.04525 10.7812 6.2666C10.4144 5.48796 9.88281 4.89648 9.18652 4.49219C8.49023 4.08789 7.64795 3.88574 6.65967 3.88574H4.24512V14.4985ZM22.4834 17.542C21.248 17.542 20.1849 17.2874 19.2939 16.7783C18.403 16.2692 17.7179 15.543 17.2388 14.5996C16.7596 13.6562 16.52 12.5369 16.52 11.2417V11.2305C16.52 9.94271 16.7596 8.82715 17.2388 7.88379C17.7179 6.93294 18.3918 6.19922 19.2603 5.68262C20.1362 5.15853 21.1657 4.89648 22.3486 4.89648C23.5391 4.89648 24.5648 5.15104 25.4258 5.66016C26.2868 6.16178 26.9494 6.8693 27.4136 7.78271C27.8853 8.69613 28.1211 9.76676 28.1211 10.9946V12.0054H18.1484V9.93896H26.5601L25.0103 11.8706V10.6016C25.0103 9.88281 24.9017 9.28385 24.6846 8.80469C24.4674 8.31803 24.1605 7.95492 23.7637 7.71533C23.3743 7.46826 22.9214 7.34473 22.4048 7.34473C21.8957 7.34473 21.439 7.47201 21.0347 7.72656C20.6379 7.97363 20.3271 8.34049 20.1025 8.82715C19.8779 9.3138 19.7656 9.90527 19.7656 10.6016V11.8818C19.7656 12.5557 19.8779 13.1322 20.1025 13.6113C20.3271 14.0905 20.6453 14.4574 21.0571 14.7119C21.4764 14.9665 21.9743 15.0938 22.5508 15.0938C23.015 15.0938 23.4118 15.0264 23.7412 14.8916C24.0706 14.7493 24.3402 14.5734 24.5498 14.3638C24.7594 14.1541 24.9017 13.9482 24.9766 13.7461L24.999 13.6787H28.02L27.9976 13.8022C27.9002 14.2215 27.7205 14.652 27.4585 15.0938C27.2039 15.5355 26.8521 15.9435 26.4028 16.3179C25.9611 16.6847 25.4146 16.9805 24.7632 17.2051C24.1193 17.4297 23.3594 17.542 22.4834 17.542ZM31.0698 17.4789C30.4564 17.4789 29.9734 17.3026 29.6208 16.9499C29.2834 16.5973 29.1148 16.1066 29.1148 15.4779V11.8899H30.7018V15.5699C30.7018 15.7386 30.7324 15.8689 30.7938 15.9609C30.8704 16.0529 30.9624 16.0989 31.0698 16.0989C31.1771 16.0989 31.2614 16.0606 31.3228 15.9839C31.3841 15.8919 31.4148 15.7846 31.4148 15.6619V11.6369C31.4148 11.3609 31.3458 11.1463 31.2078 10.9929C31.0851 10.8396 30.8704 10.6863 30.5638 10.5329C30.0884 10.3183 29.7358 10.0729 29.5058 9.79692C29.2758 9.52092 29.1608 9.11459 29.1608 8.57792V5.26592C29.1608 4.68325 29.3141 4.23092 29.6208 3.90892C29.9428 3.58692 30.4181 3.42592 31.0468 3.42592C31.6754 3.42592 32.1431 3.59459 32.4498 3.93192C32.7718 4.26925 32.9328 4.74459 32.9328 5.35792V8.16392H31.3918V5.26592C31.3918 4.95925 31.2844 4.80592 31.0698 4.80592C30.8704 4.80592 30.7708 4.94392 30.7708 5.21992V8.41692C30.7708 8.67759 30.8321 8.86925 30.9548 8.99192C31.0774 9.11459 31.2844 9.25259 31.5758 9.40592C32.0664 9.66659 32.4268 9.93492 32.6568 10.2109C32.8868 10.4716 33.0018 10.8933 33.0018 11.4759V15.5929C33.0018 16.1756 32.8331 16.6356 32.4958 16.9729C32.1584 17.3103 31.6831 17.4789 31.0698 17.4789ZM34.5674 17.2949V5.15479H37.8467V17.2949H34.5674ZM36.207 3.49268C35.7129 3.49268 35.2899 3.32048 34.938 2.97607C34.5936 2.63167 34.4214 2.21989 34.4214 1.74072C34.4214 1.26156 34.5936 0.853516 34.938 0.516602C35.2899 0.172201 35.7129 0 36.207 0C36.7087 0 37.1317 0.172201 37.4761 0.516602C37.8205 0.853516 37.9927 1.26156 37.9927 1.74072C37.9927 2.21989 37.8205 2.63167 37.4761 2.97607C37.1317 3.32048 36.7087 3.49268 36.207 3.49268ZM45.9663 21.5288C44.8507 21.5288 43.8849 21.3791 43.0688 21.0796C42.2528 20.7801 41.6051 20.3683 41.126 19.8442C40.6543 19.3201 40.3698 18.7287 40.2725 18.0698L40.2612 17.98H43.4731L43.4956 18.0474C43.6154 18.3618 43.8849 18.6313 44.3042 18.856C44.731 19.0806 45.2962 19.1929 46 19.1929C46.8535 19.1929 47.5086 18.9907 47.9653 18.5864C48.422 18.1896 48.6504 17.6468 48.6504 16.958V14.9702H48.5381C48.321 15.397 48.0327 15.7638 47.6733 16.0708C47.314 16.3703 46.891 16.6024 46.4043 16.7671C45.9251 16.9243 45.3973 17.0029 44.8208 17.0029C43.8101 17.0029 42.9341 16.7633 42.1929 16.2842C41.4591 15.7975 40.8901 15.1087 40.4858 14.2178C40.089 13.3193 39.8906 12.2637 39.8906 11.0508V11.0283C39.8906 9.77051 40.0928 8.6849 40.4971 7.77148C40.9014 6.85807 41.4741 6.1543 42.2153 5.66016C42.964 5.16602 43.8512 4.91895 44.877 4.91895C45.446 4.91895 45.9663 5.01253 46.438 5.19971C46.9097 5.38688 47.3252 5.64893 47.6846 5.98584C48.0439 6.32275 48.3322 6.72705 48.5493 7.19873H48.6392V5.15479H51.9185V16.9468C51.9185 17.8602 51.6751 18.6613 51.1885 19.3501C50.7093 20.0389 50.0243 20.5742 49.1333 20.9561C48.2424 21.3379 47.1867 21.5288 45.9663 21.5288ZM45.9551 14.5659C46.5091 14.5659 46.9883 14.4237 47.3926 14.1392C47.7969 13.8547 48.1076 13.4541 48.3247 12.9375C48.5493 12.4134 48.6616 11.7995 48.6616 11.0957V11.0845C48.6616 10.3807 48.5493 9.77051 48.3247 9.25391C48.1076 8.72982 47.7931 8.32552 47.3813 8.04102C46.9771 7.75651 46.5016 7.61426 45.9551 7.61426C45.3936 7.61426 44.9106 7.75651 44.5063 8.04102C44.1021 8.32552 43.7876 8.72607 43.563 9.24268C43.3459 9.75928 43.2373 10.3695 43.2373 11.0732V11.0957C43.2373 11.7995 43.3459 12.4134 43.563 12.9375C43.7801 13.4541 44.0908 13.8547 44.4951 14.1392C44.9069 14.4237 45.3936 14.5659 45.9551 14.5659ZM54.4453 17.2949V5.15479H57.7246V7.10889H57.8369C58.1364 6.42008 58.5894 5.88102 59.1958 5.4917C59.8097 5.09489 60.5659 4.89648 61.4644 4.89648C62.8045 4.89648 63.834 5.29704 64.5527 6.09814C65.279 6.89925 65.6421 8.01481 65.6421 9.44482V17.2949H62.3628V10.1523C62.3628 9.33626 62.1756 8.7111 61.8013 8.27686C61.4344 7.83512 60.8766 7.61426 60.1279 7.61426C59.6413 7.61426 59.2145 7.72656 58.8477 7.95117C58.4883 8.17578 58.2113 8.49023 58.0166 8.89453C57.8219 9.29134 57.7246 9.75928 57.7246 10.2983V17.2949H54.4453ZM4.75049 39.2949V25.8857H0V23.0894H12.8813V25.8857H8.14209V39.2949H4.75049ZM17.834 39.542C16.5986 39.542 15.5355 39.2874 14.6445 38.7783C13.7536 38.2692 13.0685 37.543 12.5894 36.5996C12.1102 35.6562 11.8706 34.5369 11.8706 33.2417V33.2305C11.8706 31.9427 12.1102 30.8271 12.5894 29.8838C13.0685 28.9329 13.7424 28.1992 14.6108 27.6826C15.4868 27.1585 16.5163 26.8965 17.6992 26.8965C18.8896 26.8965 19.9154 27.151 20.7764 27.6602C21.6374 28.1618 22.3 28.8693 22.7642 29.7827C23.2358 30.6961 23.4717 31.7668 23.4717 32.9946V34.0054H13.499V31.939H21.9106L20.3608 33.8706V32.6016C20.3608 31.8828 20.2523 31.2839 20.0352 30.8047C19.818 30.318 19.5111 29.9549 19.1143 29.7153C18.7249 29.4683 18.272 29.3447 17.7554 29.3447C17.2463 29.3447 16.7896 29.472 16.3853 29.7266C15.9884 29.9736 15.6777 30.3405 15.4531 30.8271C15.2285 31.3138 15.1162 31.9053 15.1162 32.6016V33.8818C15.1162 34.5557 15.2285 35.1322 15.4531 35.6113C15.6777 36.0905 15.9959 36.4574 16.4077 36.7119C16.827 36.9665 17.3249 37.0938 17.9014 37.0938C18.3656 37.0938 18.7624 37.0264 19.0918 36.8916C19.4212 36.7493 19.6908 36.5734 19.9004 36.3638C20.11 36.1541 20.2523 35.9482 20.3271 35.7461L20.3496 35.6787H23.3706L23.3481 35.8022C23.2508 36.2215 23.0711 36.652 22.8091 37.0938C22.5545 37.5355 22.2026 37.9435 21.7534 38.3179C21.3117 38.6847 20.7651 38.9805 20.1138 39.2051C19.4699 39.4297 18.71 39.542 17.834 39.542ZM28.9971 39.4858C28.2035 39.4858 27.5034 39.3324 26.897 39.0254C26.2905 38.7184 25.8151 38.2879 25.4707 37.7339C25.1263 37.1799 24.9541 36.5435 24.9541 35.8247V35.8022C24.9541 35.0685 25.1375 34.4396 25.5044 33.9155C25.8787 33.3914 26.4178 32.9797 27.1216 32.6802C27.8254 32.3732 28.6789 32.1898 29.6821 32.1299L34.3428 31.8491V33.8706L30.1763 34.1401C29.5174 34.1776 29.0195 34.3273 28.6826 34.5894C28.3532 34.8439 28.1885 35.1921 28.1885 35.6338V35.645C28.1885 36.0942 28.3607 36.4499 28.7051 36.7119C29.0495 36.9665 29.5062 37.0938 30.0752 37.0938C30.5693 37.0938 31.0111 36.9964 31.4004 36.8018C31.7897 36.6071 32.0967 36.3413 32.3213 36.0044C32.5459 35.6675 32.6582 35.2894 32.6582 34.8701V31.1191C32.6582 30.5801 32.486 30.1608 32.1416 29.8613C31.7972 29.5618 31.2993 29.4121 30.6479 29.4121C30.0415 29.4121 29.5549 29.5282 29.188 29.7603C28.8286 29.9924 28.6003 30.2993 28.5029 30.6812L28.4805 30.771H25.4707L25.4819 30.6475C25.5568 29.9062 25.8114 29.2549 26.2456 28.6934C26.6873 28.1318 27.2938 27.6938 28.0649 27.3794C28.8361 27.0575 29.7495 26.8965 30.8052 26.8965C31.8608 26.8965 32.7705 27.0649 33.5342 27.4019C34.2979 27.7313 34.8856 28.203 35.2974 28.8169C35.7166 29.4233 35.9263 30.1458 35.9263 30.9844V39.2949H32.6582V37.5542H32.5459C32.3288 37.951 32.0443 38.2954 31.6924 38.5874C31.3405 38.8794 30.9362 39.104 30.4795 39.2612C30.0228 39.411 29.5286 39.4858 28.9971 39.4858ZM36.7364 39.2949L39.6344 25.6329H44.2804L44.1194 26.3919L43.6824 27.6799H43.7974C44.3034 26.8826 44.9244 26.2769 45.6604 25.8629C46.4117 25.4489 47.2167 25.2419 48.0754 25.2419C49.0107 25.2419 49.7467 25.4643 50.2834 25.9089C50.8201 26.3536 51.1267 26.9516 51.2034 27.7029H51.3184C51.8244 26.9209 52.4454 26.3153 53.1814 25.8859C53.9174 25.4566 54.7071 25.2419 55.5504 25.2419C57.6357 25.2419 58.6784 26.3306 58.6784 28.5079C58.6784 29.1979 58.5941 29.9263 58.4254 30.6929L56.5854 39.2949H51.9164L53.6874 30.9919C53.7641 30.6393 53.8024 30.3326 53.8024 30.0719C53.8024 29.3359 53.4651 28.9679 52.7904 28.9679C52.2997 28.9679 51.8627 29.1903 51.4794 29.6349C51.0961 30.0643 50.8354 30.6009 50.6974 31.2449L48.9954 39.2949H44.3264L46.1204 30.8769C46.1817 30.6316 46.2124 30.3786 46.2124 30.1179C46.2124 29.3513 45.8674 28.9679 45.1774 28.9679C44.6867 28.9679 44.2497 29.1903 43.8664 29.6349C43.4984 30.0643 43.2377 30.6009 43.0844 31.2449L41.3824 39.2949H36.7364ZM60.6603 39.6859C59.909 39.6859 59.357 39.5709 59.0043 39.3409C58.6363 39.1109 58.4523 38.7583 58.4523 38.2829C58.4523 38.1143 58.4753 37.9303 58.5213 37.7309C58.6593 37.0563 58.966 36.5579 59.4413 36.2359C59.932 35.9139 60.6143 35.7529 61.4883 35.7529C62.2397 35.7529 62.7917 35.8679 63.1443 36.0979C63.497 36.3279 63.6733 36.6806 63.6733 37.1559C63.6733 37.3246 63.6503 37.5163 63.6043 37.7309C63.4663 38.4056 63.1597 38.9039 62.6843 39.2259C62.209 39.5326 61.5343 39.6859 60.6603 39.6859Z" fill="white"/>
</svg>
