<svg preserveAspectRatio="none" width="100%" height="100%" overflow="visible" style="display: block;" viewBox="0 0 169.323 128" fill="none" xmlns="http://www.w3.org/2000/svg">
<path id="Lettermark" d="M169.307 91.7121V90.9728C169.307 90.0048 169.232 89.0412 169.121 88.0115L169.055 87.5187V87.3075C169.007 86.8895 168.932 86.4275 168.852 85.9875L168.777 85.5475H168.755L168.517 84.4342C166.364 74.4063 160.218 69.0338 158.969 68.0437C147.162 57.5714 123.672 51.2352 89.1956 49.2067L88.1499 49.1451L88.0617 24.7068H109.368C111.868 24.7166 114.362 24.9255 116.829 25.3316C119.177 25.6948 121.464 26.3757 123.628 27.3556C125.493 28.2005 127.114 29.5022 128.34 31.1398C129.518 32.7238 130.127 34.7699 130.14 37.2252C130.2 39.4123 129.632 41.571 128.503 43.447C128.256 43.831 127.988 44.2011 127.7 44.5558C127.113 45.2466 125.124 47.2355 120.482 49.2243C128.168 50.5444 138.859 52.9601 148.164 57.0478L148.865 56.6694H148.892L148.945 56.6386C150.442 55.8473 151.836 54.8765 153.096 53.7477C153.634 53.3028 154.14 52.8205 154.61 52.3044V52.3044L155.77 51.1208C160.385 46.3642 162.688 40.2701 162.618 33.0098C162.583 25.9696 160.941 20.1878 157.764 15.8801C154.506 11.5383 150.198 8.09 145.243 5.85658C139.813 3.41888 134.036 1.83652 128.119 1.16603C121.891 0.396368 115.622 0.00696662 109.346 0H55.6546L55.7914 48.5687H55.5399C30.0069 49.0087 0 51.4948 0 51.4948C10.5891 51.5476 55.5575 54.4209 55.5575 54.4209H55.809V128H115.443C121.884 127.988 128.31 127.387 134.641 126.205C140.683 125.139 146.521 123.14 151.945 120.278C156.9 117.665 161.182 113.946 164.458 109.409C167.595 105.009 169.232 99.4871 169.311 92.9397V92.3985C169.333 92.1653 169.32 91.9585 169.307 91.7121ZM135.492 94.845L135.351 95.1046C135.292 95.2214 135.225 95.3346 135.152 95.4434C133.878 97.3142 132.213 98.8886 130.273 100.059C128.186 101.297 125.891 102.145 123.5 102.563C121.037 103.03 118.537 103.27 116.03 103.28H89.5574L88.4235 103.13V100.526C88.4897 92.1169 88.6353 72.7387 88.6926 68.7213C88.7262 67.392 88.6063 66.0632 88.3352 64.7612L88.2382 64.352L87.969 63.472C87.72 62.6653 87.3103 61.917 86.7645 61.2719C86.6851 61.1663 86.6057 61.0651 86.5219 60.9639L84.7791 58.8606L98.1169 61.9319C119.48 67.5861 128.869 74.1687 133.026 78.7493C139.061 86.5287 136.449 93.0189 135.492 94.845V94.845Z" fill="var(--fill-0, #2D2E2C)"/>
</svg>
