<svg preserveAspectRatio="none" width="100%" height="100%" overflow="visible" style="display: block;" viewBox="0 0 46.0322 40.141" fill="none" xmlns="http://www.w3.org/2000/svg">

<path id="Vector" d="M34.2209 0H11.8113C5.29919 0 0 5.83345 0 13.0097V27.1746C0 34.322 5.29919 40.141 11.8113 40.141H34.2209C40.733 40.141 46.0322 34.322 46.0322 27.1746V13.0097C46.0178 5.83345 40.733 0 34.2209 0ZM7.34957 13.0097C7.34957 9.58764 9.18334 7.19073 11.7968 7.19073H34.2065C36.82 7.19073 38.6538 9.58764 38.6538 13.0097V27.1169C38.6538 30.5389 36.82 32.9359 34.2065 32.9359H11.7968C9.18334 32.9359 7.34957 30.5389 7.34957 27.1169V13.0097Z" fill="var(--fill-0, #031679)"/>

<path id="Vector" d="M0.0144423 7.19073H18.54V40.1266H24.5034C25.2686 40.1266 25.8895 39.5201 25.8895 38.7693V7.19073H42.7401C43.5054 7.19073 44.1263 6.58428 44.1263 5.83345V0H0V7.20517L0.0144423 7.19073Z" fill="var(--fill-0, #031679)"/>

<path id="Vector" d="M0 40.1555H36.6756C37.4265 40.1555 38.0329 39.549 38.0329 38.7982V32.9503H7.17629V23.6514H31.3187V16.4463H7.17629V7.20517H36.6756C37.4265 7.20517 38.0329 6.59872 38.0329 5.84788V0H0V40.141V40.1555Z" fill="var(--fill-0, #031679)"/>

<path id="Vector" d="M0 7.20517H18.049V40.141H23.868C24.6189 40.141 25.2253 39.5346 25.2253 38.7837V7.20517H41.6572C42.408 7.20517 43.0144 6.59872 43.0144 5.84788V0H0V7.20517Z" fill="var(--fill-0, #031679)"/>

<path id="Vector" d="M0 40.141H5.819C6.56984 40.141 7.17628 39.5346 7.17628 38.7837V0H0V40.141Z" fill="var(--fill-0, #031679)"/>

<path id="Vector" d="M33.8889 29.7881L7.23406 0.447615C6.97416 0.158831 6.61318 0 6.22332 0H0V40.141H5.81903C6.56987 40.141 7.17629 39.5346 7.17629 38.7837V10.3529L34.2354 40.141H39.7079C40.4587 40.141 41.0651 39.5346 41.0651 38.7837V0H33.8889V29.7881Z" fill="var(--fill-0, #031679)"/>

<path id="Vector" d="M11.5081 7.20517H40.632C41.3828 7.20517 41.9893 6.59872 41.9893 5.84788V0H11.5081C5.1548 0 0 5.83345 0 13.0097V27.1746C0 34.322 5.16924 40.141 11.5081 40.141H41.9893V17.8036C41.9893 17.0527 41.3828 16.4463 40.632 16.4463H13.0964V23.6514H34.8707V32.9503H11.5081C8.95232 32.9503 7.17629 30.5534 7.17629 27.1313V13.0242C7.17629 9.60208 8.96676 7.20517 11.5081 7.20517Z" fill="var(--fill-0, #031679)"/>

<path id="Vector" d="M32.1561 0H0V40.141H5.9634C6.72868 40.141 7.34956 39.5346 7.34956 38.7837V25.413H32.1561C37.8885 25.413 42.3791 21.1823 42.3791 14.9013V11.176C42.3791 5.11148 37.7008 0 32.1561 0ZM35.0296 15.1034C35.0296 18.3089 33.8455 18.2079 31.5353 18.2079H7.36401V7.19073H31.5353C33.86 7.19073 35.0296 7.78274 35.0296 10.9738V15.1034Z" fill="var(--fill-0, #031679)"/>

<path id="Vector" d="M42.4658 40.1555L30.2646 25.4275H32.1562C37.8885 25.4275 42.3791 21.1968 42.3791 14.9157V11.1904C42.3791 5.12592 37.7008 0 32.1562 0H0V40.141H5.96341C6.72868 40.141 7.34957 39.5346 7.34957 38.7837V25.413H20.7203L32.9214 40.141H42.4658V40.1555ZM7.36401 7.20517H31.5353C33.86 7.20517 35.0296 7.79718 35.0296 10.9882V15.1179C35.0296 18.3234 33.8455 18.2223 31.5353 18.2223H7.36401V7.20517Z" fill="var(--fill-0, #031679)"/>

<path id="Vector" d="M0 40.1988V0H29.0662C32.2572 0 34.9718 1.05406 36.9066 3.03224C38.9859 5.1548 40.141 8.28811 40.141 11.8546C40.141 13.8617 39.7656 15.7388 39.0437 17.4426C38.8704 17.8613 38.7549 18.0057 38.6971 18.0635C38.6827 18.0779 38.6682 18.1068 38.6827 18.1212C38.6971 18.1357 38.6971 18.1645 38.726 18.179C38.726 18.179 39.1014 18.3667 39.5635 18.7132L39.6501 18.7854C39.7801 18.8865 39.8667 18.9587 39.9389 19.0165L39.9966 19.0598C40.1699 19.2186 40.3287 19.363 40.4876 19.5218C42.5668 21.6444 43.722 24.7777 43.722 28.3442C43.722 31.9107 42.5813 35.044 40.4876 37.1666C38.5383 39.1447 35.8381 40.1988 32.6471 40.1988H8.54802C8.54802 40.1988 8.40363 40.1988 8.33143 40.2277H0V40.1988ZM7.73942 23.7236C7.73942 23.7236 7.71054 23.7236 7.69611 23.7381C7.69611 23.7381 7.68167 23.767 7.68167 23.7814V32.8492C7.68167 32.8492 7.71054 32.9214 7.75386 32.9214H31.1743C33.0947 32.9214 34.6686 32.3872 35.6216 31.4197C36.358 30.6689 36.7045 29.6582 36.7045 28.3009C36.7045 26.5104 36.0836 25.6585 35.6216 25.182C34.7408 24.2868 33.3546 23.7814 31.6075 23.6948H7.73942V23.7236ZM27.6078 16.4607C29.5282 16.4607 31.1021 15.9265 32.0406 14.9735C32.5027 14.497 33.1236 13.6451 33.1236 11.8546C33.1236 10.0641 32.5027 9.21222 32.0406 8.73573C31.1021 7.7683 29.5138 7.23405 27.5934 7.23405H7.73942C7.73942 7.23405 7.66723 7.26293 7.66723 7.30624V16.3885C7.66723 16.3885 7.69611 16.4607 7.73942 16.4607H11.2193C11.2193 16.4607 11.2482 16.4607 11.2626 16.4463H27.5934L27.6078 16.4607Z" fill="var(--fill-0, #031679)"/>

<path id="Vector" d="M33.0081 16.4174H12.2733C10.4107 16.4174 8.88012 15.8976 7.97045 14.9446C7.52283 14.4825 6.93083 13.6451 6.93083 11.8835C6.93083 10.1219 7.52283 9.29886 7.97045 8.82236C8.88012 7.86937 10.4107 7.34956 12.2733 7.34956H42.87L42.9134 1.4006C42.9134 0.620886 42.2925 0 41.5272 0H10.8294C7.71054 0 5.06817 1.05406 3.16219 3.03224C1.12626 5.1548 0 8.30255 0 11.8835C0 15.4644 1.12626 18.6122 3.16219 20.7347C5.06817 22.7273 7.71054 23.7814 10.8294 23.7814H31.5641C33.4268 23.7814 34.9574 24.3012 35.867 25.2542C36.3146 25.7163 36.9066 26.5537 36.9066 28.3153C36.9066 30.0769 36.3146 30.8999 35.867 31.3764C34.9574 32.3294 33.4268 32.8492 31.5641 32.8492H2.72901C1.96373 32.8492 1.32841 33.4846 1.34285 34.2498L1.37173 40.2132H33.0081C36.1269 40.2132 38.7693 39.1592 40.6753 37.1666C42.7112 35.0295 43.8375 31.8962 43.8375 28.3153C43.8375 24.7344 42.7112 21.5866 40.6753 19.4641C38.7693 17.4715 36.1269 16.4318 33.0081 16.4318V16.4174Z" fill="var(--fill-0, #031679)"/>

<path id="Vector" d="M33.0081 16.403H12.2733C10.4107 16.403 8.8801 15.8831 7.97043 14.9302C7.52282 14.4681 6.93081 13.6451 6.93081 11.8835C6.93081 10.1219 7.52282 9.29886 7.97043 8.8368C8.8801 7.88381 10.4107 7.364 12.2733 7.364H40.7908C41.5561 7.364 42.177 6.74312 42.177 5.97784L42.2203 0H10.8294C7.71054 0 5.06815 1.05406 3.16217 3.03224C1.12624 5.16924 0 8.30255 0 11.8835C0 15.4644 1.12624 18.5977 3.16217 20.7347C5.06815 22.7273 7.71054 23.767 10.8294 23.767H31.5641C33.4268 23.767 34.9573 24.2868 35.867 25.2398C36.3146 25.7018 36.9066 26.5393 36.9066 28.2864C36.9066 30.0336 36.3146 30.8711 35.867 31.3331C34.9573 32.2861 33.4268 32.8059 31.5641 32.8059H2.72901C1.96373 32.8059 1.3284 33.4412 1.34284 34.2065L1.37172 40.1555H33.0081C36.1269 40.1555 38.7693 39.1014 40.6753 37.1232C42.7112 35.0007 43.8375 31.8529 43.8375 28.272C43.8375 24.6911 42.7112 21.5578 40.6753 19.4208C38.7693 17.4426 36.1269 16.3885 33.0081 16.3885V16.403Z" fill="var(--fill-0, #031679)"/>

</svg>